<svg height="512pt" viewBox="0 0 512 512" width="512pt" xmlns="http://www.w3.org/2000/svg"><path d="m139 351h235c11.046875 0 20-8.953125 20-20v-147c0-33.085938-26.914062-60-60-60h-.023438v-47.46875c0-42.199219-34.992187-76.53125-78-76.53125-43.011718 0-78 34.332031-78 76.53125v47.496094c-32.613281.550781-58.976562 27.234375-58.976562 59.972656v147c0 11.046875 8.953125 20 20 20zm116.976562-311c20.953126 0 38 16.386719 38 36.53125v47.46875h-76v-47.46875c0-20.144531 17.046876-36.53125 38-36.53125zm-96.976562 144c0-11.027344 8.972656-20 20-20h155c11.027344 0 20 8.972656 20 20v127h-195zm353 206v43c0 43.5625-35.4375 79-79 79h-354c-43.5625 0-79-35.4375-79-79v-43c0-34.269531 21.875-64.453125 54.429688-75.101562 10.496093-3.429688 21.792968 2.296874 25.226562 12.792968 3.433594 10.5-2.292969 21.792969-12.792969 25.230469-16.066406 5.253906-26.863281 20.152344-26.863281 37.078125v43c0 21.503906 17.496094 39 39 39h354c21.503906 0 39-17.496094 39-39v-43c0-17.128906-11.449219-32.503906-27.84375-37.386719-10.585938-3.152343-16.609375-14.289062-13.457031-24.875 3.152343-10.585937 14.285156-16.613281 24.875-13.460937 15.980469 4.757812 30.339843 14.730468 40.441406 28.074218 10.457031 13.8125 15.984375 30.289063 15.984375 47.648438zm-296 2c11.046875 0 20 8.953125 20 20s-8.953125 20-20 20-20-8.953125-20-20 8.953125-20 20-20zm-100 20c0-11.046875 8.953125-20 20-20s20 8.953125 20 20-8.953125 20-20 20-20-8.953125-20-20zm180-20c11.046875 0 20 8.953125 20 20s-8.953125 20-20 20-20-8.953125-20-20 8.953125-20 20-20zm100 20c0 11.046875-8.953125 20-20 20s-20-8.953125-20-20 8.953125-20 20-20 20 8.953125 20 20zm-120-175c0 11.046875-8.953125 20-20 20s-20-8.953125-20-20 8.953125-20 20-20 20 8.953125 20 20zm0 0" fill="#ffffff"/></svg>