<?xml version="1.0" standalone="no"?><!DOCTYPE svg PUBLIC "-//W3C//DTD SVG 1.1//EN" "http://www.w3.org/Graphics/SVG/1.1/DTD/svg11.dtd"><svg t="1595497047434" class="icon" viewBox="0 0 1137 1024" version="1.1" xmlns="http://www.w3.org/2000/svg" p-id="4410" xmlns:xlink="http://www.w3.org/1999/xlink" width="222.0703125" height="200"><defs><style type="text/css"></style></defs><path d="M739.555556 398.222222H398.222222a56.888889 56.888889 0 0 1 0-113.777778h341.333334a56.888889 56.888889 0 0 1 0 113.777778z m395.832888 211.228445l-170.666666-568.888889A56.888889 56.888889 0 0 0 910.222222 0H227.555556a56.888889 56.888889 0 0 0-54.499556 40.561778l-170.666667 568.888889A109.454222 109.454222 0 0 0 0 625.777778v341.333333a56.888889 56.888889 0 0 0 56.888889 56.888889h1024a56.888889 56.888889 0 0 0 56.888889-56.888889V625.777778a109.340444 109.340444 0 0 0-2.389334-16.327111zM269.880889 113.777778h598.016l136.533333 455.111111H739.555556a56.888889 56.888889 0 0 0-56.888889 56.888889v56.888889h-227.555556v-56.888889a56.888889 56.888889 0 0 0-56.888889-56.888889H133.347556zM1024 910.222222H113.777778v-227.555555h227.555555v56.888889a56.888889 56.888889 0 0 0 56.888889 56.888888h341.333334a56.888889 56.888889 0 0 0 56.888888-56.888888v-56.888889h227.555556v227.555555z" fill="#54626C" p-id="4411"></path></svg>