<?xml version="1.0" standalone="no"?><!DOCTYPE svg PUBLIC "-//W3C//DTD SVG 1.1//EN" "http://www.w3.org/Graphics/SVG/1.1/DTD/svg11.dtd"><svg t="1595497002545" class="icon" viewBox="0 0 1024 1024" version="1.1" xmlns="http://www.w3.org/2000/svg" p-id="1370" xmlns:xlink="http://www.w3.org/1999/xlink" width="200" height="200"><defs><style type="text/css"></style></defs><path d="M506.5 295.7L419.8 170H197v686h709.4V307.1H528.2c-8.7 0-16.8-4.3-21.7-11.4z" fill="#fff000" p-id="1371"></path><path d="M932.5 908.9H90.8c-14.6 0-26.5-11.8-26.5-26.5v-76c0-14.6 11.8-26.5 26.5-26.5s26.5 11.8 26.5 26.5v49.5H906V307.1H527.9c-8.7 0-16.8-4.3-21.8-11.4L419.4 170H117.3v402.8c0 14.6-11.8 26.5-26.5 26.5s-26.5-11.8-26.5-26.5V143.5c0-14.6 11.8-26.5 26.5-26.5h342.4c8.7 0 16.8 4.3 21.8 11.4l86.7 125.7h390.7c14.6 0 26.5 11.8 26.5 26.5v601.8c0.1 14.6-11.8 26.5-26.4 26.5z" fill="#ffffff" p-id="1372"></path><path d="M91.2 734.4c-14.6 0-26.5-11.8-26.5-26.5v-48.5c0-14.6 11.8-26.5 26.5-26.5s26.5 11.8 26.5 26.5V708c0 14.6-11.9 26.4-26.5 26.4zM926.2 431.6h-835c-14.6 0-26.5-11.8-26.5-26.5 0-14.6 11.8-26.5 26.5-26.5h835c14.6 0 26.5 11.8 26.5 26.5s-11.9 26.5-26.5 26.5z" fill="#ffffff" p-id="1373"></path></svg>